<svg id="Search_Big" data-name="Search Big" xmlns="http://www.w3.org/2000/svg" width="339" height="40" viewBox="0 0 339 40">
  <g id="Path_1096" data-name="Path 1096" fill="none">
    <path d="M20,0H319a20,20,0,0,1,0,40H20A20,20,0,0,1,20,0Z" stroke="none"/>
    <path d="M 20 1 C 17.43460083007813 1 14.9464111328125 1.502227783203125 12.60464477539063 2.492725372314453 C 10.34228515625 3.449634552001953 8.31024169921875 4.819728851318359 6.56494140625 6.564952850341797 C 4.819732666015625 8.310226440429688 3.44964599609375 10.34227180480957 2.49273681640625 12.60463714599609 C 1.502227783203125 14.94640922546387 1 17.43459129333496 1 20 C 1 22.56540870666504 1.502227783203125 25.05359077453613 2.49273681640625 27.39536285400391 C 3.44964599609375 29.6577262878418 4.819732666015625 31.68977355957031 6.56494140625 33.43504333496094 C 8.31024169921875 35.18027114868164 10.34228515625 36.55036163330078 12.60464477539063 37.50727081298828 C 14.9464111328125 38.49777221679688 17.43460083007813 39 20 39 L 319 39 C 321.5653991699219 39 324.0535888671875 38.49777221679688 326.3953552246094 37.50727081298828 C 328.65771484375 36.55036163330078 330.6897583007813 35.18027114868164 332.43505859375 33.43504333496094 C 334.1802673339844 31.68977355957031 335.5503540039063 29.6577262878418 336.5072631835938 27.39536285400391 C 337.4977722167969 25.05359077453613 338 22.56540870666504 338 20 C 338 17.43459129333496 337.4977722167969 14.94640922546387 336.5072631835938 12.60463714599609 C 335.5503540039063 10.34227180480957 334.1802673339844 8.310226440429688 332.43505859375 6.564952850341797 C 330.6897583007813 4.819728851318359 328.65771484375 3.449634552001953 326.3953552246094 2.492725372314453 C 324.0535888671875 1.502227783203125 321.5653991699219 1 319 1 L 20 1 M 20 0 L 319 0 C 330.0456848144531 0 339 8.954319000244141 339 20 C 339 31.04568099975586 330.0456848144531 40 319 40 L 20 40 C 8.954315185546875 40 0 31.04568099975586 0 20 C 0 8.954319000244141 8.954315185546875 0 20 0 Z" stroke="none" fill="#272d3b"/>
  </g>
  <g id="magnifying-glass" transform="translate(16.377 11)">
    <path id="Path_42" data-name="Path 42" d="M18.621,17.782l-4.553-4.553a8,8,0,1,0-.789.789l4.553,4.553a.565.565,0,0,0,.395.166.547.547,0,0,0,.395-.166A.562.562,0,0,0,18.621,17.782ZM1.168,7.989a6.867,6.867,0,1,1,6.867,6.872A6.875,6.875,0,0,1,1.168,7.989Z" transform="translate(-0.05 0)" fill="#272d3b"/>
  </g>
  <text id="Search" transform="translate(51 27)" fill="#272d3b" font-size="16" font-family="Montserrat-Regular, Montserrat"><tspan x="0" y="0">Search</tspan></text>
</svg>
