<svg xmlns="http://www.w3.org/2000/svg" width="67.498" height="67.5" viewBox="0 0 67.498 67.5">
  <g id="chat" transform="translate(0)">
    <path id="Path_282" data-name="Path 282" d="M33.75,67.5A33.745,33.745,0,1,0,8.217,55.822l-7.5,7.4A2.407,2.407,0,0,0,2.4,67.34ZM19.4,21.805H48.259a2.4,2.4,0,0,1,0,4.81H19.4a2.4,2.4,0,0,1,0-4.81Zm0,9.62H48.259a2.4,2.4,0,0,1,0,4.81H19.4a2.4,2.4,0,0,1,0-4.81ZM17,43.45a2.4,2.4,0,0,1,2.4-2.4H48.259a2.4,2.4,0,0,1,0,4.81H19.4A2.4,2.4,0,0,1,17,43.45Z" transform="translate(0)" fill="#73afd1"/>
  </g>
</svg>
