<svg xmlns="http://www.w3.org/2000/svg" width="90" height="90.002" viewBox="0 0 90 90.002">
  <g id="chat" transform="translate(0)">
    <path id="Path_282" data-name="Path 282" d="M45,90A44.994,44.994,0,1,0,10.956,74.431L.957,84.3a3.209,3.209,0,0,0,2.237,5.489ZM25.869,29.074H64.347a3.207,3.207,0,0,1,0,6.413H25.869a3.207,3.207,0,0,1,0-6.413Zm0,12.827H64.347a3.207,3.207,0,0,1,0,6.413H25.869a3.207,3.207,0,0,1,0-6.413ZM22.662,57.935a3.207,3.207,0,0,1,3.207-3.207H64.347a3.207,3.207,0,0,1,0,6.413H25.869A3.207,3.207,0,0,1,22.662,57.935Z" transform="translate(0)" fill="#00ccf2"/>
  </g>
</svg>
