<svg id="edit" xmlns="http://www.w3.org/2000/svg" width="31" height="26" viewBox="0 0 31 26">
  <path id="Path_24" data-name="Path 24" d="M28.992,1.711a7.8,7.8,0,0,0-9.677,0L1.574,16.587a.707.707,0,0,0-.251.427L.009,25.18a.673.673,0,0,0,.251.626,1,1,0,0,0,.627.222.854.854,0,0,0,.119-.006l5.865-.665a.785.785,0,0,0,.766-.842.878.878,0,0,0-1-.643l-4.7.532.918-5.7L10,24.7a1,1,0,0,0,.627.222.965.965,0,0,0,.627-.222L28.992,9.828A5.284,5.284,0,0,0,31,5.767,5.265,5.265,0,0,0,28.992,1.711ZM19.659,3.539l2.979,2.5L6.449,19.618l-2.979-2.5ZM10.63,23.119,7.717,20.676,23.906,7.1,26.819,9.54ZM28.061,8.47,20.934,2.492a5.668,5.668,0,0,1,3.223-.97,5.579,5.579,0,0,1,3.58,1.241,3.891,3.891,0,0,1,1.48,3A3.831,3.831,0,0,1,28.061,8.47Z" transform="translate(0 -0.028)" fill="#272d3b"/>
</svg>
