<svg xmlns="http://www.w3.org/2000/svg" xmlns:xlink="http://www.w3.org/1999/xlink" width="1927.086" height="1080" viewBox="0 0 1927.086 1080">
  <defs>
    <clipPath id="clip-path">
      <path id="Path_63" data-name="Path 63" d="M0-1442H1927.086V-362H0Z" transform="translate(3624 6194)" fill="#f2f2f2" clip-rule="evenodd"/>
    </clipPath>
    <clipPath id="clip-path-2">
      <path id="Path_6" data-name="Path 6" d="M515.24-923.287a94.645,94.645,0,0,1,94.692,94.6V10.067a94.645,94.645,0,0,1-94.692,94.6q-52.3,0-94.692,63.065V-828.689A94.645,94.645,0,0,1,515.24-923.287Z" transform="translate(-420.548 923.287)" fill="#75cbb3"/>
    </clipPath>
    <clipPath id="clip-path-3">
      <path id="Path_8" data-name="Path 8" d="M515.24-1200a94.659,94.659,0,0,1,94.692,94.628v839.039A94.66,94.66,0,0,1,515.24-171.7q-52.3,0-94.692,94.628V-1105.371A94.66,94.66,0,0,1,515.24-1200Z" transform="translate(-420.548 1200)" fill="#f2f2f2"/>
    </clipPath>
    <clipPath id="clip-path-4">
      <path id="Path_10" data-name="Path 10" d="M137.843-430.137a94.642,94.642,0,0,1,94.692,94.589v457.2a94.642,94.642,0,0,1-94.692,94.589H43.151V-335.548A94.642,94.642,0,0,1,137.843-430.137Z" transform="translate(-43.151 430.137)" fill="#dc2249"/>
    </clipPath>
    <clipPath id="clip-path-5">
      <path id="Path_12" data-name="Path 12" d="M546.917-132.115H169.178v-888.491H323.421v-5.421h223.5Zm0,3.088v27.79H169.178v-27.79Zm0,32.936v25.217H169.178V-96.091Zm0,33.451V-40.51H169.178V-62.64Zm0,33.451v18.527H169.178V-29.189Zm0,31.907V20.731H169.178V2.719Zm0,34.48V50.064H169.178V37.2ZM544.786,69.62A94.256,94.256,0,0,1,541.6,80.942H174.5a94.247,94.247,0,0,1-3.191-11.322Zm-14.049,32.936a95.069,95.069,0,0,1-6.67,8.749H192.028a95.1,95.1,0,0,1-6.674-8.749Zm-39.687,33.451a93.858,93.858,0,0,1-38.567,8.234H263.613a93.857,93.857,0,0,1-38.567-8.234Z" transform="translate(-169.178 1026.027)" fill="#7a4865"/>
    </clipPath>
    <clipPath id="clip-path-6">
      <path id="Path_15" data-name="Path 15" d="M169.178-1026.2H546.917v345.223c.039,51.26-42.241,92.846-94.435,92.885s-94.474,41.624-94.435,92.885v112.133c0,102.6-84.56,185.769-188.869,185.769Z" transform="translate(-169.178 1026.204)" fill="#141310"/>
    </clipPath>
    <clipPath id="clip-path-7">
      <rect id="Rectangle_1" data-name="Rectangle 1" width="388.031" height="840.014" fill="none"/>
    </clipPath>
    <clipPath id="clip-path-8">
      <path id="Path_14" data-name="Path 14" d="M169.178-196.806H546.917v-829.906H169.178Z" transform="translate(-169.178 1026.712)" fill="none"/>
    </clipPath>
    <clipPath id="clip-path-9">
      <path id="Path_17" data-name="Path 17" d="M859.8-655.885v543.577c-.017,52.279-41.922,94.646-93.6,94.628q-51.692,0-93.6,94.628V-736.567c6.867,46.37,46.235,80.678,92.58,80.682Z" transform="translate(-672.603 736.567)" fill="#3d2c42"/>
    </clipPath>
    <clipPath id="clip-path-10">
      <path id="Path_20" data-name="Path 20" d="M767.2-556.849a94.555,94.555,0,0,1,94.6,94.512V-5.53a94.555,94.555,0,0,1-94.6,94.512A94.555,94.555,0,0,1,672.6-5.529V-462.337A94.555,94.555,0,0,1,767.2-556.849Z" transform="translate(-672.602 556.849)" fill="#dc2249"/>
    </clipPath>
    <clipPath id="clip-path-11">
      <rect id="Rectangle_2" data-name="Rectangle 2" width="199.677" height="656.668" fill="#dc2249"/>
    </clipPath>
    <clipPath id="clip-path-12">
      <path id="Path_19" data-name="Path 19" d="M672.6,89.526H861.986V-556.849H672.6Z" transform="translate(-672.603 556.849)" fill="#dc2249"/>
    </clipPath>
    <clipPath id="clip-path-13">
      <path id="Path_22" data-name="Path 22" d="M110.989-450.942a16.526,16.526,0,0,1-16.468-16.583,16.526,16.526,0,0,1,16.468-16.583,16.526,16.526,0,0,1,16.468,16.583,16.526,16.526,0,0,1-16.468,16.583Zm0,80.549a16.526,16.526,0,0,1-16.468-16.583,16.526,16.526,0,0,1,16.468-16.583,16.526,16.526,0,0,1,16.468,16.583,16.526,16.526,0,0,1-16.468,16.583Zm0-241.646a16.526,16.526,0,0,1-16.468-16.583,16.526,16.526,0,0,1,16.468-16.584,16.526,16.526,0,0,1,16.468,16.584,16.526,16.526,0,0,1-16.468,16.583Zm0,80.549a16.526,16.526,0,0,1-16.468-16.583,16.526,16.526,0,0,1,16.468-16.584,16.526,16.526,0,0,1,16.468,16.583,16.526,16.526,0,0,1-16.468,16.583Z" transform="translate(-94.52 645.205)" fill="#75cbb3"/>
    </clipPath>
    <clipPath id="clip-path-14">
      <path id="Path_31" data-name="Path 31" d="M607.249-658.214c99.33,0,179.852-80.5,179.852-179.8s-80.522-179.8-179.852-179.8S427.4-937.311,427.4-838.011,507.919-658.214,607.249-658.214Z" transform="translate(-427.397 1017.808)" fill="#70c6ae"/>
    </clipPath>
    <clipPath id="clip-path-15">
      <rect id="Rectangle_3" data-name="Rectangle 3" width="564.035" height="1170.269" fill="#dc2249"/>
    </clipPath>
    <clipPath id="clip-path-16">
      <path id="Path_24" data-name="Path 24" d="M427.4-657.567H787.638v-360.241H427.4Z" transform="translate(-427.397 1017.808)" fill="none"/>
    </clipPath>
    <clipPath id="clip-path-17">
      <path id="Path_27" data-name="Path 27" d="M925.717-1026.2V48.229a94.659,94.659,0,0,1-94.659,94.659H641.74a94.659,94.659,0,0,1-94.659-94.659V-1026.205Z" transform="translate(-547.081 1026.205)" fill="#f2f2f2"/>
    </clipPath>
    <clipPath id="clip-path-18">
      <path id="Path_26" data-name="Path 26" d="M427.4-657.567H787.638v-360.241H427.4Z" transform="translate(-427.397 1017.808)" fill="#f2f2f2"/>
    </clipPath>
    <clipPath id="clip-path-19">
      <path id="Path_30" data-name="Path 30" d="M547.081-899.21H726.933v305.97H547.081Z" transform="translate(-547.081 899.21)" fill="none"/>
    </clipPath>
    <clipPath id="clip-path-21">
      <path id="Path_33" data-name="Path 33" d="M133.461,138.684a3.133,3.133,0,0,1-1.287-.291,4.061,4.061,0,0,1-1.143-.79,4.714,4.714,0,0,1-.875-1.17,4.66,4.66,0,0,1-.485-1.43,3.922,3.922,0,0,1,.024-1.424,3.039,3.039,0,0,1,.5-1.155,2.494,2.494,0,0,1,.888-.77,2.522,2.522,0,0,1,1.193-.269,3.141,3.141,0,0,1,1.283.3,4.069,4.069,0,0,1,1.137.789,4.719,4.719,0,0,1,.871,1.164,4.663,4.663,0,0,1,.485,1.423,3.932,3.932,0,0,1-.02,1.42,3.049,3.049,0,0,1-.493,1.156,2.463,2.463,0,0,1-2.077,1.052Zm-4.123-25.377A3.18,3.18,0,0,1,128.06,113a4.116,4.116,0,0,1-1.134-.792,4.717,4.717,0,0,1-.867-1.159,4.577,4.577,0,0,1-.479-1.407,3.782,3.782,0,0,1,.027-1.394,2.908,2.908,0,0,1,.5-1.123,2.418,2.418,0,0,1,.884-.74,2.514,2.514,0,0,1,1.186-.245,3.188,3.188,0,0,1,1.274.309,4.124,4.124,0,0,1,1.128.79,4.719,4.719,0,0,1,.863,1.154,4.579,4.579,0,0,1,.479,1.4,3.789,3.789,0,0,1-.022,1.39,2.915,2.915,0,0,1-.492,1.124,2.42,2.42,0,0,1-.88.745,2.509,2.509,0,0,1-1.186.251ZM125.292,88.4a3.226,3.226,0,0,1-1.269-.319,4.173,4.173,0,0,1-1.125-.793,4.719,4.719,0,0,1-.859-1.148,4.5,4.5,0,0,1-.473-1.385,3.646,3.646,0,0,1,.029-1.364,2.784,2.784,0,0,1,.5-1.091,2.346,2.346,0,0,1,.879-.71,2.508,2.508,0,0,1,1.178-.221,3.234,3.234,0,0,1,1.265.323,4.177,4.177,0,0,1,1.119.791,4.72,4.72,0,0,1,.855,1.143A4.5,4.5,0,0,1,127.861,85a3.655,3.655,0,0,1-.025,1.361,2.792,2.792,0,0,1-.491,1.093,2.349,2.349,0,0,1-.875.716A2.5,2.5,0,0,1,125.292,88.4Zm-3.973-24.455a3.274,3.274,0,0,1-1.26-.333,4.226,4.226,0,0,1-1.116-.794,4.719,4.719,0,0,1-.851-1.138,4.415,4.415,0,0,1-.467-1.364,3.518,3.518,0,0,1,.032-1.335,2.666,2.666,0,0,1,.5-1.061,2.28,2.28,0,0,1,.875-.682,2.5,2.5,0,0,1,1.171-.2,3.283,3.283,0,0,1,1.256.336,4.23,4.23,0,0,1,1.11.792,4.72,4.72,0,0,1,.848,1.133,4.418,4.418,0,0,1,.467,1.358,3.527,3.527,0,0,1-.027,1.332,2.674,2.674,0,0,1-.49,1.063,2.281,2.281,0,0,1-.871.687,2.5,2.5,0,0,1-1.171.2Zm-3.9-24.013a3.324,3.324,0,0,1-1.251-.345,4.278,4.278,0,0,1-1.107-.795,4.718,4.718,0,0,1-.844-1.128,4.336,4.336,0,0,1-.462-1.343,3.4,3.4,0,0,1,.034-1.307,2.557,2.557,0,0,1,.494-1.032,2.217,2.217,0,0,1,.871-.654,2.5,2.5,0,0,1,1.163-.176,3.332,3.332,0,0,1,1.247.348,4.283,4.283,0,0,1,1.1.793,4.722,4.722,0,0,1,.84,1.123,4.34,4.34,0,0,1,.462,1.337,3.4,3.4,0,0,1-.03,1.3,2.563,2.563,0,0,1-.489,1.033,2.217,2.217,0,0,1-.867.659A2.5,2.5,0,0,1,117.418,39.929Zm-3.831-23.582a3.373,3.373,0,0,1-1.242-.358,4.33,4.33,0,0,1-1.1-.8,4.719,4.719,0,0,1-.836-1.118,4.262,4.262,0,0,1-.456-1.323,3.277,3.277,0,0,1,.036-1.28,2.45,2.45,0,0,1,.493-1,2.159,2.159,0,0,1,.866-.628,2.506,2.506,0,0,1,1.156-.155,3.382,3.382,0,0,1,1.238.36,4.337,4.337,0,0,1,1.093.794,4.721,4.721,0,0,1,.832,1.113,4.267,4.267,0,0,1,.456,1.317,3.286,3.286,0,0,1-.032,1.278,2.457,2.457,0,0,1-.487,1,2.159,2.159,0,0,1-.862.633A2.5,2.5,0,0,1,113.587,16.347Zm-1.372,122.211a3.235,3.235,0,0,1-1.319-.3,4.117,4.117,0,0,1-1.166-.8,4.716,4.716,0,0,1-.887-1.185,4.639,4.639,0,0,1-.483-1.449,3.926,3.926,0,0,1,.039-1.443,3.091,3.091,0,0,1,.524-1.17,2.589,2.589,0,0,1,.92-.78,2.635,2.635,0,0,1,1.228-.273,3.242,3.242,0,0,1,1.314.3,4.122,4.122,0,0,1,1.16.8,4.717,4.717,0,0,1,.883,1.18,4.641,4.641,0,0,1,.483,1.442,3.932,3.932,0,0,1-.035,1.438,3.1,3.1,0,0,1-.517,1.171,2.594,2.594,0,0,1-.915.786,2.629,2.629,0,0,1-1.227.281Zm-3.977-25.713a3.28,3.28,0,0,1-1.309-.31,4.173,4.173,0,0,1-1.156-.8,4.719,4.719,0,0,1-.879-1.174,4.556,4.556,0,0,1-.477-1.426,3.784,3.784,0,0,1,.042-1.412,2.958,2.958,0,0,1,.523-1.137,2.509,2.509,0,0,1,.915-.749,2.626,2.626,0,0,1,1.22-.248,3.288,3.288,0,0,1,1.3.314,4.175,4.175,0,0,1,1.15.8,4.72,4.72,0,0,1,.875,1.169,4.557,4.557,0,0,1,.477,1.419,3.79,3.79,0,0,1-.037,1.408,2.966,2.966,0,0,1-.516,1.139,2.512,2.512,0,0,1-.91.755,2.62,2.62,0,0,1-1.219.255Zm-3.9-25.233a3.328,3.328,0,0,1-1.3-.324,4.23,4.23,0,0,1-1.147-.8,4.72,4.72,0,0,1-.871-1.164,4.472,4.472,0,0,1-.471-1.4,3.649,3.649,0,0,1,.044-1.381,2.83,2.83,0,0,1,.521-1.105,2.436,2.436,0,0,1,.91-.719,2.62,2.62,0,0,1,1.212-.223,3.336,3.336,0,0,1,1.3.328,4.23,4.23,0,0,1,1.141.8,4.72,4.72,0,0,1,.867,1.158,4.474,4.474,0,0,1,.472,1.4,3.656,3.656,0,0,1-.039,1.377,2.839,2.839,0,0,1-.514,1.106,2.438,2.438,0,0,1-.905.724,2.612,2.612,0,0,1-1.211.231ZM100.5,62.846a3.376,3.376,0,0,1-1.29-.338,4.284,4.284,0,0,1-1.138-.8,4.721,4.721,0,0,1-.863-1.153,4.392,4.392,0,0,1-.466-1.381,3.519,3.519,0,0,1,.046-1.352,2.713,2.713,0,0,1,.519-1.074,2.368,2.368,0,0,1,.905-.69,2.616,2.616,0,0,1,1.2-.2,3.384,3.384,0,0,1,1.286.341,4.283,4.283,0,0,1,1.132.8,4.719,4.719,0,0,1,.859,1.148,4.393,4.393,0,0,1,.466,1.375,3.526,3.526,0,0,1-.041,1.348,2.72,2.72,0,0,1-.513,1.075,2.367,2.367,0,0,1-.9.7,2.609,2.609,0,0,1-1.2.207ZM96.743,38.533a3.425,3.425,0,0,1-1.281-.351,4.337,4.337,0,0,1-1.128-.806,4.72,4.72,0,0,1-.855-1.142,4.315,4.315,0,0,1-.46-1.36,3.4,3.4,0,0,1,.048-1.323,2.6,2.6,0,0,1,.518-1.044,2.3,2.3,0,0,1,.9-.661,2.615,2.615,0,0,1,1.2-.177,3.435,3.435,0,0,1,1.277.354,4.339,4.339,0,0,1,1.123.8,4.72,4.72,0,0,1,.851,1.137,4.316,4.316,0,0,1,.46,1.354,3.4,3.4,0,0,1-.044,1.319,2.606,2.606,0,0,1-.511,1.045,2.3,2.3,0,0,1-.9.667,2.606,2.606,0,0,1-1.2.184ZM93.051,14.662A3.475,3.475,0,0,1,91.78,14.3a4.391,4.391,0,0,1-1.119-.807,4.721,4.721,0,0,1-.847-1.132,4.24,4.24,0,0,1-.455-1.339,3.275,3.275,0,0,1,.05-1.3,2.493,2.493,0,0,1,.516-1.015,2.243,2.243,0,0,1,.9-.634,2.616,2.616,0,0,1,1.189-.155,3.484,3.484,0,0,1,1.267.366,4.395,4.395,0,0,1,1.114.8,4.721,4.721,0,0,1,.843,1.127,4.241,4.241,0,0,1,.455,1.333,3.281,3.281,0,0,1-.046,1.292,2.5,2.5,0,0,1-.51,1.016,2.244,2.244,0,0,1-.891.64,2.606,2.606,0,0,1-1.188.162ZM90.393,138.428a3.34,3.34,0,0,1-1.352-.3,4.174,4.174,0,0,1-1.189-.812,4.719,4.719,0,0,1-.9-1.2,4.615,4.615,0,0,1-.482-1.468,3.929,3.929,0,0,1,.055-1.462A3.148,3.148,0,0,1,87.076,132a2.689,2.689,0,0,1,.953-.79,2.755,2.755,0,0,1,1.264-.276,3.346,3.346,0,0,1,1.347.3,4.18,4.18,0,0,1,1.183.81,4.72,4.72,0,0,1,.9,1.2A4.616,4.616,0,0,1,93.2,134.7a3.933,3.933,0,0,1-.05,1.458,3.156,3.156,0,0,1-.543,1.187,2.692,2.692,0,0,1-.948.8,2.749,2.749,0,0,1-1.263.284ZM86.57,112.371a3.387,3.387,0,0,1-1.342-.315,4.232,4.232,0,0,1-1.18-.813,4.722,4.722,0,0,1-.891-1.19,4.53,4.53,0,0,1-.476-1.445,3.785,3.785,0,0,1,.057-1.43,3.011,3.011,0,0,1,.549-1.152,2.608,2.608,0,0,1,.948-.758,2.744,2.744,0,0,1,1.256-.25,3.394,3.394,0,0,1,1.337.318,4.235,4.235,0,0,1,1.173.812,4.719,4.719,0,0,1,.887,1.184,4.531,4.531,0,0,1,.476,1.438,3.793,3.793,0,0,1-.052,1.426,3.019,3.019,0,0,1-.541,1.153,2.61,2.61,0,0,1-.943.765,2.739,2.739,0,0,1-1.255.258Zm-3.75-25.564a3.435,3.435,0,0,1-1.332-.329,4.287,4.287,0,0,1-1.17-.815,4.722,4.722,0,0,1-.882-1.179,4.447,4.447,0,0,1-.47-1.422,3.647,3.647,0,0,1,.059-1.4,2.884,2.884,0,0,1,.547-1.119,2.533,2.533,0,0,1,.942-.727,2.737,2.737,0,0,1,1.247-.225,3.442,3.442,0,0,1,1.327.333,4.29,4.29,0,0,1,1.164.813,4.721,4.721,0,0,1,.878,1.173,4.447,4.447,0,0,1,.47,1.415,3.654,3.654,0,0,1-.054,1.395,2.889,2.889,0,0,1-.54,1.12,2.531,2.531,0,0,1-.937.733,2.73,2.73,0,0,1-1.246.233Zm-3.68-25.085a3.483,3.483,0,0,1-1.322-.343,4.342,4.342,0,0,1-1.16-.816,4.724,4.724,0,0,1-.874-1.168,4.366,4.366,0,0,1-.464-1.4,3.517,3.517,0,0,1,.061-1.369,2.763,2.763,0,0,1,.545-1.087,2.461,2.461,0,0,1,.937-.7,2.732,2.732,0,0,1,1.239-.2,3.491,3.491,0,0,1,1.317.346,4.345,4.345,0,0,1,1.154.814,4.72,4.72,0,0,1,.87,1.163,4.365,4.365,0,0,1,.464,1.393,3.522,3.522,0,0,1-.056,1.365,2.768,2.768,0,0,1-.538,1.088,2.46,2.46,0,0,1-.932.7,2.725,2.725,0,0,1-1.238.209ZM75.529,37.1a3.534,3.534,0,0,1-1.312-.356,4.395,4.395,0,0,1-1.151-.817,4.723,4.723,0,0,1-.866-1.157,4.289,4.289,0,0,1-.459-1.377,3.389,3.389,0,0,1,.063-1.34A2.647,2.647,0,0,1,72.348,31a2.394,2.394,0,0,1,.931-.669,2.731,2.731,0,0,1,1.23-.178,3.542,3.542,0,0,1,1.307.36,4.4,4.4,0,0,1,1.145.815,4.721,4.721,0,0,1,.862,1.152,4.289,4.289,0,0,1,.459,1.371,3.4,3.4,0,0,1-.058,1.336,2.651,2.651,0,0,1-.536,1.058,2.393,2.393,0,0,1-.927.674,2.722,2.722,0,0,1-1.23.185ZM71.984,12.935a3.585,3.585,0,0,1-1.3-.369,4.448,4.448,0,0,1-1.141-.818,4.723,4.723,0,0,1-.858-1.147,4.211,4.211,0,0,1-.453-1.356,3.269,3.269,0,0,1,.065-1.311,2.538,2.538,0,0,1,.541-1.026,2.332,2.332,0,0,1,.926-.641,2.731,2.731,0,0,1,1.222-.156,3.591,3.591,0,0,1,1.3.372,4.452,4.452,0,0,1,1.135.816,4.723,4.723,0,0,1,.854,1.142,4.213,4.213,0,0,1,.453,1.35,3.275,3.275,0,0,1-.06,1.307,2.542,2.542,0,0,1-.534,1.028,2.331,2.331,0,0,1-.921.646,2.722,2.722,0,0,1-1.221.163Zm-5,125.354a3.457,3.457,0,0,1-1.388-.3,4.237,4.237,0,0,1-1.215-.823,4.722,4.722,0,0,1-.913-1.219,4.592,4.592,0,0,1-.48-1.489,3.935,3.935,0,0,1,.073-1.483,3.211,3.211,0,0,1,.579-1.2,2.8,2.8,0,0,1,.99-.8,2.887,2.887,0,0,1,1.3-.28,3.462,3.462,0,0,1,1.383.308,4.24,4.24,0,0,1,1.209.822,4.722,4.722,0,0,1,.908,1.213,4.6,4.6,0,0,1,.48,1.482,3.943,3.943,0,0,1-.067,1.478,3.221,3.221,0,0,1-.572,1.2,2.8,2.8,0,0,1-.984.808,2.883,2.883,0,0,1-1.3.288Zm-3.65-26.426a3.5,3.5,0,0,1-1.377-.319,4.3,4.3,0,0,1-1.2-.825,4.722,4.722,0,0,1-.9-1.207,4.5,4.5,0,0,1-.474-1.465,3.788,3.788,0,0,1,.075-1.45,3.072,3.072,0,0,1,.577-1.168,2.717,2.717,0,0,1,.983-.769,2.876,2.876,0,0,1,1.295-.253,3.509,3.509,0,0,1,1.372.323,4.3,4.3,0,0,1,1.2.823,4.723,4.723,0,0,1,.9,1.2,4.509,4.509,0,0,1,.474,1.458,3.8,3.8,0,0,1-.069,1.446,3.079,3.079,0,0,1-.57,1.169,2.719,2.719,0,0,1-.978.775,2.87,2.87,0,0,1-1.294.262Zm-3.58-25.919a3.552,3.552,0,0,1-1.367-.334,4.351,4.351,0,0,1-1.195-.826,4.723,4.723,0,0,1-.9-1.2,4.421,4.421,0,0,1-.468-1.441,3.65,3.65,0,0,1,.076-1.418,2.941,2.941,0,0,1,.575-1.134,2.638,2.638,0,0,1,.977-.737,2.868,2.868,0,0,1,1.286-.228,3.559,3.559,0,0,1,1.362.338,4.352,4.352,0,0,1,1.188.825,4.723,4.723,0,0,1,.891,1.19,4.425,4.425,0,0,1,.468,1.435,3.658,3.658,0,0,1-.071,1.414,2.947,2.947,0,0,1-.568,1.135,2.638,2.638,0,0,1-.972.743,2.861,2.861,0,0,1-1.285.235ZM56.239,60.516a3.6,3.6,0,0,1-1.356-.349A4.407,4.407,0,0,1,53.7,59.34a4.724,4.724,0,0,1-.887-1.184,4.34,4.34,0,0,1-.462-1.418,3.515,3.515,0,0,1,.078-1.387,2.816,2.816,0,0,1,.572-1.1,2.564,2.564,0,0,1,.971-.706,2.863,2.863,0,0,1,1.277-.2,3.608,3.608,0,0,1,1.351.352,4.408,4.408,0,0,1,1.178.826,4.721,4.721,0,0,1,.882,1.179,4.344,4.344,0,0,1,.463,1.412,3.526,3.526,0,0,1-.073,1.383,2.822,2.822,0,0,1-.565,1.1,2.563,2.563,0,0,1-.966.712,2.854,2.854,0,0,1-1.276.21ZM52.793,35.567a3.651,3.651,0,0,1-1.346-.362,4.46,4.46,0,0,1-1.175-.829,4.722,4.722,0,0,1-.878-1.173,4.261,4.261,0,0,1-.457-1.4,3.389,3.389,0,0,1,.079-1.357,2.7,2.7,0,0,1,.57-1.069,2.494,2.494,0,0,1,.965-.676,2.86,2.86,0,0,1,1.268-.179,3.658,3.658,0,0,1,1.341.366,4.462,4.462,0,0,1,1.168.827,4.723,4.723,0,0,1,.874,1.168,4.267,4.267,0,0,1,.457,1.389,3.4,3.4,0,0,1-.075,1.353,2.705,2.705,0,0,1-.563,1.071,2.5,2.5,0,0,1-.96.682,2.852,2.852,0,0,1-1.267.186ZM49.411,11.083a3.7,3.7,0,0,1-1.335-.375,4.515,4.515,0,0,1-1.165-.829,4.722,4.722,0,0,1-.87-1.163,4.183,4.183,0,0,1-.451-1.374,3.267,3.267,0,0,1,.081-1.328,2.587,2.587,0,0,1,.567-1.039,2.43,2.43,0,0,1,.959-.648,2.86,2.86,0,0,1,1.259-.156,3.709,3.709,0,0,1,1.33.378,4.517,4.517,0,0,1,1.159.828,4.726,4.726,0,0,1,.866,1.157A4.19,4.19,0,0,1,52.263,7.9a3.275,3.275,0,0,1-.076,1.324,2.593,2.593,0,0,1-.56,1.04,2.429,2.429,0,0,1-.954.653,2.85,2.85,0,0,1-1.258.163ZM43.905,138.151a3.573,3.573,0,0,1-1.424-.308,4.3,4.3,0,0,1-1.241-.835,4.725,4.725,0,0,1-.925-1.236,4.568,4.568,0,0,1-.478-1.51,3.942,3.942,0,0,1,.091-1.5,3.274,3.274,0,0,1,.608-1.219,2.915,2.915,0,0,1,1.026-.812,3.023,3.023,0,0,1,1.343-.284,3.581,3.581,0,0,1,1.419.312,4.3,4.3,0,0,1,1.234.833,4.723,4.723,0,0,1,.921,1.23,4.57,4.57,0,0,1,.478,1.5,3.947,3.947,0,0,1-.085,1.5,3.283,3.283,0,0,1-.6,1.221,2.918,2.918,0,0,1-1.02.819,3.018,3.018,0,0,1-1.343.292Zm-3.474-26.79a3.62,3.62,0,0,1-1.412-.324,4.358,4.358,0,0,1-1.23-.836,4.724,4.724,0,0,1-.916-1.224,4.48,4.48,0,0,1-.472-1.485,3.792,3.792,0,0,1,.092-1.47,3.133,3.133,0,0,1,.605-1.183,2.828,2.828,0,0,1,1.019-.779,3.009,3.009,0,0,1,1.334-.256,3.627,3.627,0,0,1,1.407.328,4.359,4.359,0,0,1,1.223.835,4.723,4.723,0,0,1,.912,1.218,4.481,4.481,0,0,1,.472,1.478,3.8,3.8,0,0,1-.086,1.466,3.139,3.139,0,0,1-.6,1.185,2.829,2.829,0,0,1-1.014.785,3,3,0,0,1-1.333.265ZM37.025,85.092a3.669,3.669,0,0,1-1.4-.339,4.414,4.414,0,0,1-1.219-.838A4.725,4.725,0,0,1,33.5,82.7a4.4,4.4,0,0,1-.466-1.461,3.653,3.653,0,0,1,.093-1.437,3,3,0,0,1,.6-1.149,2.746,2.746,0,0,1,1.012-.746,3,3,0,0,1,1.324-.23,3.676,3.676,0,0,1,1.4.343,4.415,4.415,0,0,1,1.213.836,4.725,4.725,0,0,1,.9,1.206,4.4,4.4,0,0,1,.466,1.454,3.66,3.66,0,0,1-.088,1.433,3,3,0,0,1-.6,1.15,2.746,2.746,0,0,1-1.007.752,2.994,2.994,0,0,1-1.323.238ZM33.684,59.328a3.718,3.718,0,0,1-1.39-.354,4.47,4.47,0,0,1-1.209-.839,4.723,4.723,0,0,1-.9-1.2,4.313,4.313,0,0,1-.46-1.437,3.516,3.516,0,0,1,.095-1.405,2.872,2.872,0,0,1,.6-1.115,2.67,2.67,0,0,1,1.006-.714,2.994,2.994,0,0,1,1.314-.2,3.726,3.726,0,0,1,1.385.358,4.471,4.471,0,0,1,1.2.837,4.724,4.724,0,0,1,.894,1.195,4.317,4.317,0,0,1,.46,1.43,3.525,3.525,0,0,1-.089,1.4A2.877,2.877,0,0,1,36,58.4a2.668,2.668,0,0,1-1,.721,2.987,2.987,0,0,1-1.314.212ZM30.407,34.056a3.77,3.77,0,0,1-1.379-.368,4.523,4.523,0,0,1-1.2-.84,4.725,4.725,0,0,1-.89-1.189,4.233,4.233,0,0,1-.454-1.414,3.388,3.388,0,0,1,.1-1.374,2.752,2.752,0,0,1,.6-1.082,2.6,2.6,0,0,1,1-.684,2.991,2.991,0,0,1,1.3-.18,3.778,3.778,0,0,1,1.374.372,4.526,4.526,0,0,1,1.192.838,4.728,4.728,0,0,1,.886,1.184,4.238,4.238,0,0,1,.455,1.407A3.4,3.4,0,0,1,33.3,32.1a2.757,2.757,0,0,1-.59,1.084,2.6,2.6,0,0,1-.994.69,2.983,2.983,0,0,1-1.3.188ZM27.192,9.261a3.82,3.82,0,0,1-1.368-.382,4.578,4.578,0,0,1-1.188-.841,4.726,4.726,0,0,1-.882-1.178A4.156,4.156,0,0,1,23.3,5.469a3.265,3.265,0,0,1,.1-1.344A2.639,2.639,0,0,1,24,3.074a2.532,2.532,0,0,1,.993-.655,2.989,2.989,0,0,1,1.295-.156,3.828,3.828,0,0,1,1.363.385,4.58,4.58,0,0,1,1.182.839,4.727,4.727,0,0,1,.878,1.172,4.161,4.161,0,0,1,.449,1.385,3.273,3.273,0,0,1-.092,1.34,2.643,2.643,0,0,1-.587,1.052,2.53,2.53,0,0,1-.988.66,2.98,2.98,0,0,1-1.295.164ZM20.182,138.01a3.7,3.7,0,0,1-1.461-.313,4.363,4.363,0,0,1-1.267-.847,4.725,4.725,0,0,1-.939-1.253,4.544,4.544,0,0,1-.475-1.531,3.949,3.949,0,0,1,.109-1.525,3.347,3.347,0,0,1,.639-1.236,3.035,3.035,0,0,1,1.064-.824,3.166,3.166,0,0,1,1.385-.288,3.7,3.7,0,0,1,1.456.317,4.368,4.368,0,0,1,1.26.845,4.724,4.724,0,0,1,.934,1.247,4.546,4.546,0,0,1,.476,1.524,3.956,3.956,0,0,1-.1,1.521,3.351,3.351,0,0,1-.632,1.238,3.038,3.038,0,0,1-1.059.83,3.162,3.162,0,0,1-1.385.3ZM16.9,110.846a3.743,3.743,0,0,1-1.449-.329,4.419,4.419,0,0,1-1.256-.848,4.726,4.726,0,0,1-.929-1.241,4.456,4.456,0,0,1-.469-1.506,3.8,3.8,0,0,1,.11-1.49,3.2,3.2,0,0,1,.635-1.2,2.945,2.945,0,0,1,1.056-.789,3.152,3.152,0,0,1,1.374-.259,3.751,3.751,0,0,1,1.444.333,4.424,4.424,0,0,1,1.249.847,4.724,4.724,0,0,1,.925,1.235,4.459,4.459,0,0,1,.47,1.5,3.806,3.806,0,0,1-.1,1.486,3.205,3.205,0,0,1-.628,1.2,2.945,2.945,0,0,1-1.052.8,3.147,3.147,0,0,1-1.375.267ZM13.674,84.218a3.793,3.793,0,0,1-1.437-.345,4.476,4.476,0,0,1-1.245-.85,4.727,4.727,0,0,1-.92-1.229,4.372,4.372,0,0,1-.463-1.481,3.658,3.658,0,0,1,.112-1.456,3.062,3.062,0,0,1,.632-1.164,2.86,2.86,0,0,1,1.049-.755,3.141,3.141,0,0,1,1.364-.232,3.8,3.8,0,0,1,1.432.349,4.481,4.481,0,0,1,1.238.848,4.727,4.727,0,0,1,.916,1.223,4.374,4.374,0,0,1,.464,1.473,3.663,3.663,0,0,1-.106,1.452,3.067,3.067,0,0,1-.625,1.165,2.861,2.861,0,0,1-1.045.761,3.135,3.135,0,0,1-1.364.239ZM10.515,58.109a3.842,3.842,0,0,1-1.425-.36A4.533,4.533,0,0,1,7.856,56.9a4.729,4.729,0,0,1-.911-1.217,4.29,4.29,0,0,1-.457-1.456A3.522,3.522,0,0,1,6.6,52.8a2.934,2.934,0,0,1,.629-1.129,2.782,2.782,0,0,1,1.042-.723,3.134,3.134,0,0,1,1.353-.206,3.85,3.85,0,0,1,1.42.363,4.536,4.536,0,0,1,1.227.849,4.725,4.725,0,0,1,.907,1.211,4.29,4.29,0,0,1,.458,1.449,3.527,3.527,0,0,1-.107,1.42,2.936,2.936,0,0,1-.622,1.131,2.781,2.781,0,0,1-1.038.729,3.128,3.128,0,0,1-1.354.213Zm-3.1-25.6A3.894,3.894,0,0,1,6,32.13a4.588,4.588,0,0,1-1.223-.852,4.729,4.729,0,0,1-.9-1.205,4.21,4.21,0,0,1-.452-1.433,3.392,3.392,0,0,1,.114-1.392,2.812,2.812,0,0,1,.625-1.1A2.708,2.708,0,0,1,5.2,25.461a3.13,3.13,0,0,1,1.343-.181,3.9,3.9,0,0,1,1.409.378,4.591,4.591,0,0,1,1.216.85,4.728,4.728,0,0,1,.9,1.2,4.211,4.211,0,0,1,.452,1.426,3.4,3.4,0,0,1-.109,1.388,2.813,2.813,0,0,1-.619,1.1,2.706,2.706,0,0,1-1.03.7,3.123,3.123,0,0,1-1.344.188ZM4.379,7.391A3.946,3.946,0,0,1,2.977,7a4.644,4.644,0,0,1-1.212-.853A4.729,4.729,0,0,1,.871,4.955a4.132,4.132,0,0,1-.446-1.41A3.267,3.267,0,0,1,.539,2.185a2.7,2.7,0,0,1,.622-1.063A2.638,2.638,0,0,1,2.189.46,3.128,3.128,0,0,1,3.521.3a3.954,3.954,0,0,1,1.4.391,4.648,4.648,0,0,1,1.206.851,4.726,4.726,0,0,1,.889,1.188,4.135,4.135,0,0,1,.447,1.4A3.273,3.273,0,0,1,7.351,5.5,2.7,2.7,0,0,1,6.736,6.56a2.636,2.636,0,0,1-1.023.667,3.12,3.12,0,0,1-1.333.163ZM160.01,302.116a2.881,2.881,0,0,1-1.345-.191,3.73,3.73,0,0,1-1.2-.776,4.711,4.711,0,0,1-.928-1.239,5.23,5.23,0,0,1-.524-1.578,4.91,4.91,0,0,1,.007-1.627,4,4,0,0,1,.5-1.372,3.081,3.081,0,0,1,.916-.975,2.635,2.635,0,0,1,1.24-.438,2.885,2.885,0,0,1,1.34.2,3.736,3.736,0,0,1,1.2.775,4.714,4.714,0,0,1,.923,1.233,5.23,5.23,0,0,1,.524,1.57,4.919,4.919,0,0,1,0,1.622,4.011,4.011,0,0,1-.5,1.373,3.091,3.091,0,0,1-.911.982,2.635,2.635,0,0,1-1.239.446Zm-4.628-28.491a2.92,2.92,0,0,1-1.335-.21,3.787,3.787,0,0,1-1.191-.779,4.713,4.713,0,0,1-.919-1.227,5.128,5.128,0,0,1-.517-1.552,4.727,4.727,0,0,1,.01-1.591,3.814,3.814,0,0,1,.5-1.333,2.966,2.966,0,0,1,.911-.938,2.608,2.608,0,0,1,1.232-.407,2.926,2.926,0,0,1,1.33.215,3.793,3.793,0,0,1,1.185.778,4.716,4.716,0,0,1,.914,1.221,5.129,5.129,0,0,1,.517,1.544,4.734,4.734,0,0,1-.005,1.586,3.825,3.825,0,0,1-.5,1.334,2.976,2.976,0,0,1-.907.944A2.607,2.607,0,0,1,155.382,273.625Zm-4.538-27.935a2.96,2.96,0,0,1-1.325-.227,3.841,3.841,0,0,1-1.182-.782,4.713,4.713,0,0,1-.91-1.215,5.029,5.029,0,0,1-.51-1.526,4.553,4.553,0,0,1,.013-1.556,3.643,3.643,0,0,1,.5-1.3,2.859,2.859,0,0,1,.907-.9,2.584,2.584,0,0,1,1.224-.378,2.966,2.966,0,0,1,1.321.232,3.848,3.848,0,0,1,1.175.781,4.715,4.715,0,0,1,.905,1.209,5.028,5.028,0,0,1,.51,1.518,4.559,4.559,0,0,1-.008,1.551,3.654,3.654,0,0,1-.5,1.3,2.868,2.868,0,0,1-.9.908A2.582,2.582,0,0,1,150.844,245.69Zm-4.45-27.4a3,3,0,0,1-1.316-.244,3.9,3.9,0,0,1-1.172-.784,4.714,4.714,0,0,1-.9-1.2,4.933,4.933,0,0,1-.5-1.5,4.385,4.385,0,0,1,.016-1.521,3.48,3.48,0,0,1,.5-1.259,2.759,2.759,0,0,1,.9-.868,2.564,2.564,0,0,1,1.216-.349,3.008,3.008,0,0,1,1.311.249,3.9,3.9,0,0,1,1.165.783,4.716,4.716,0,0,1,.9,1.2,4.933,4.933,0,0,1,.5,1.494A4.392,4.392,0,0,1,149,215.8a3.49,3.49,0,0,1-.5,1.26,2.766,2.766,0,0,1-.9.874,2.561,2.561,0,0,1-1.216.357Zm-4.365-26.872a3.044,3.044,0,0,1-1.306-.261,3.95,3.95,0,0,1-1.162-.786,4.713,4.713,0,0,1-.892-1.192,4.841,4.841,0,0,1-.5-1.477,4.226,4.226,0,0,1,.019-1.488,3.326,3.326,0,0,1,.5-1.223,2.666,2.666,0,0,1,.9-.834,2.547,2.547,0,0,1,1.208-.322,3.051,3.051,0,0,1,1.3.265,3.958,3.958,0,0,1,1.156.785,4.715,4.715,0,0,1,.888,1.186,4.844,4.844,0,0,1,.5,1.47,4.233,4.233,0,0,1-.014,1.484,3.335,3.335,0,0,1-.5,1.225,2.671,2.671,0,0,1-.893.84,2.544,2.544,0,0,1-1.208.329Zm-4.283-26.362a3.087,3.087,0,0,1-1.3-.276A4.007,4.007,0,0,1,135.3,164a4.771,4.771,0,0,1-1.375-2.634,4.07,4.07,0,0,1,.022-1.456,3.178,3.178,0,0,1,.5-1.189,2.576,2.576,0,0,1,.893-.8,2.532,2.532,0,0,1,1.2-.3,3.1,3.1,0,0,1,1.292.28,4.014,4.014,0,0,1,1.147.787,4.771,4.771,0,0,1,1.371,2.621,4.08,4.08,0,0,1-.017,1.452,3.19,3.19,0,0,1-.494,1.19,2.583,2.583,0,0,1-.889.807A2.528,2.528,0,0,1,137.746,165.06Zm.109,139.242a2.979,2.979,0,0,1-1.38-.192,3.782,3.782,0,0,1-1.227-.786,4.711,4.711,0,0,1-.941-1.256,5.212,5.212,0,0,1-.523-1.6,4.926,4.926,0,0,1,.023-1.652,4.069,4.069,0,0,1,.532-1.394,3.2,3.2,0,0,1,.951-.991,2.757,2.757,0,0,1,1.278-.446,2.985,2.985,0,0,1,1.375.2,3.788,3.788,0,0,1,1.22.785,4.714,4.714,0,0,1,.936,1.25,5.214,5.214,0,0,1,.523,1.593,4.932,4.932,0,0,1-.018,1.647,4.08,4.08,0,0,1-.526,1.395,3.206,3.206,0,0,1-.946,1,2.757,2.757,0,0,1-1.278.454Zm-4.472-28.913a3.019,3.019,0,0,1-1.37-.211,3.839,3.839,0,0,1-1.216-.789,4.714,4.714,0,0,1-.932-1.244,5.111,5.111,0,0,1-.516-1.574,4.741,4.741,0,0,1,.026-1.615,3.883,3.883,0,0,1,.531-1.354,3.077,3.077,0,0,1,.946-.953,2.728,2.728,0,0,1,1.269-.414,3.024,3.024,0,0,1,1.365.216,3.844,3.844,0,0,1,1.21.788,4.714,4.714,0,0,1,.927,1.238,5.11,5.11,0,0,1,.516,1.566,4.747,4.747,0,0,1-.021,1.61,3.9,3.9,0,0,1-.525,1.355,3.085,3.085,0,0,1-.941.959,2.727,2.727,0,0,1-1.27.423ZM129,247.048a3.058,3.058,0,0,1-1.359-.23,3.9,3.9,0,0,1-1.206-.792,4.715,4.715,0,0,1-.922-1.232,5.01,5.01,0,0,1-.509-1.548,4.564,4.564,0,0,1,.029-1.578,3.709,3.709,0,0,1,.53-1.315,2.966,2.966,0,0,1,.941-.916,2.7,2.7,0,0,1,1.261-.384,3.065,3.065,0,0,1,1.355.234,3.9,3.9,0,0,1,1.2.791,4.714,4.714,0,0,1,.918,1.226,5.009,5.009,0,0,1,.509,1.54,4.57,4.57,0,0,1-.024,1.574,3.718,3.718,0,0,1-.523,1.316,2.973,2.973,0,0,1-.936.922,2.7,2.7,0,0,1-1.261.392Zm-4.3-27.787a3.1,3.1,0,0,1-1.349-.247,3.951,3.951,0,0,1-1.2-.795,4.714,4.714,0,0,1-.913-1.22,4.913,4.913,0,0,1-.5-1.522,4.4,4.4,0,0,1,.032-1.543,3.543,3.543,0,0,1,.529-1.277,2.862,2.862,0,0,1,.935-.88,2.68,2.68,0,0,1,1.253-.355,3.107,3.107,0,0,1,1.345.252,3.955,3.955,0,0,1,1.189.793,4.715,4.715,0,0,1,.909,1.214,4.913,4.913,0,0,1,.5,1.515,4.4,4.4,0,0,1-.027,1.538,3.551,3.551,0,0,1-.522,1.278,2.868,2.868,0,0,1-.931.887,2.679,2.679,0,0,1-1.253.363Zm-4.215-27.248a3.144,3.144,0,0,1-1.339-.264,4.005,4.005,0,0,1-1.186-.8,4.715,4.715,0,0,1-.9-1.208,4.821,4.821,0,0,1-.5-1.5,4.232,4.232,0,0,1,.034-1.509,3.385,3.385,0,0,1,.527-1.24,2.765,2.765,0,0,1,.93-.846,2.662,2.662,0,0,1,1.244-.327,3.152,3.152,0,0,1,1.334.268,4.012,4.012,0,0,1,1.179.8,4.716,4.716,0,0,1,.9,1.2,4.821,4.821,0,0,1,.5,1.49,4.238,4.238,0,0,1-.03,1.5,3.392,3.392,0,0,1-.521,1.242,2.77,2.77,0,0,1-.926.852,2.66,2.66,0,0,1-1.244.334Zm-4.134-26.724a3.189,3.189,0,0,1-1.329-.28,4.06,4.06,0,0,1-1.176-.8,4.757,4.757,0,0,1-1.386-2.67,4.077,4.077,0,0,1,.037-1.476,3.234,3.234,0,0,1,.526-1.205,2.675,2.675,0,0,1,.925-.813,2.647,2.647,0,0,1,1.236-.3,3.2,3.2,0,0,1,1.324.284,4.068,4.068,0,0,1,1.17.8,4.758,4.758,0,0,1,1.381,2.657,4.085,4.085,0,0,1-.032,1.472,3.244,3.244,0,0,1-.519,1.206,2.678,2.678,0,0,1-.921.819,2.643,2.643,0,0,1-1.236.307Zm-1.294,141.263a3.084,3.084,0,0,1-1.417-.194,3.837,3.837,0,0,1-1.253-.8,4.713,4.713,0,0,1-.955-1.275,5.2,5.2,0,0,1-.521-1.625,4.945,4.945,0,0,1,.04-1.677,4.148,4.148,0,0,1,.562-1.416,3.319,3.319,0,0,1,.987-1.008,2.886,2.886,0,0,1,1.318-.454,3.09,3.09,0,0,1,1.412.2,3.842,3.842,0,0,1,1.247.8,4.715,4.715,0,0,1,.95,1.268,5.2,5.2,0,0,1,.521,1.617,4.952,4.952,0,0,1-.035,1.672,4.159,4.159,0,0,1-.554,1.417,3.327,3.327,0,0,1-.982,1.014,2.887,2.887,0,0,1-1.318.463ZM110.753,277.2a3.124,3.124,0,0,1-1.406-.213,3.9,3.9,0,0,1-1.242-.8,4.716,4.716,0,0,1-.945-1.262,5.092,5.092,0,0,1-.514-1.6,4.756,4.756,0,0,1,.043-1.639,3.958,3.958,0,0,1,.56-1.374,3.2,3.2,0,0,1,.982-.968,2.856,2.856,0,0,1,1.309-.422,3.129,3.129,0,0,1,1.4.218,3.9,3.9,0,0,1,1.236.8,4.716,4.716,0,0,1,.94,1.255,5.094,5.094,0,0,1,.514,1.589,4.764,4.764,0,0,1-.038,1.634,3.967,3.967,0,0,1-.553,1.376,3.2,3.2,0,0,1-.977.975,2.855,2.855,0,0,1-1.309.43Zm-4.219-28.76a3.163,3.163,0,0,1-1.395-.232,3.951,3.951,0,0,1-1.232-.8,4.717,4.717,0,0,1-.936-1.249,4.991,4.991,0,0,1-.507-1.57,4.577,4.577,0,0,1,.046-1.6,3.779,3.779,0,0,1,.558-1.334,3.082,3.082,0,0,1,.976-.93,2.828,2.828,0,0,1,1.3-.391,3.17,3.17,0,0,1,1.39.237,3.954,3.954,0,0,1,1.225.8,4.717,4.717,0,0,1,.931,1.243,4.993,4.993,0,0,1,.508,1.562,4.584,4.584,0,0,1-.041,1.6,3.787,3.787,0,0,1-.551,1.336,3.086,3.086,0,0,1-.971.937,2.827,2.827,0,0,1-1.3.4ZM102.4,220.256a3.206,3.206,0,0,1-1.384-.25,4.007,4.007,0,0,1-1.221-.805,4.717,4.717,0,0,1-.926-1.237,4.893,4.893,0,0,1-.5-1.544,4.405,4.405,0,0,1,.048-1.565,3.608,3.608,0,0,1,.556-1.3,2.974,2.974,0,0,1,.97-.894,2.8,2.8,0,0,1,1.291-.361,3.212,3.212,0,0,1,1.379.254,4.01,4.01,0,0,1,1.214.8,4.717,4.717,0,0,1,.922,1.231,4.894,4.894,0,0,1,.5,1.536,4.411,4.411,0,0,1-.043,1.561,3.615,3.615,0,0,1-.549,1.3,2.978,2.978,0,0,1-.966.9,2.8,2.8,0,0,1-1.291.369Zm-4.054-27.635a3.249,3.249,0,0,1-1.373-.267,4.062,4.062,0,0,1-1.21-.808,4.717,4.717,0,0,1-.917-1.225,4.8,4.8,0,0,1-.494-1.518,4.24,4.24,0,0,1,.051-1.53,3.447,3.447,0,0,1,.554-1.258,2.873,2.873,0,0,1,.965-.858,2.785,2.785,0,0,1,1.282-.332,3.257,3.257,0,0,1,1.368.271,4.067,4.067,0,0,1,1.2.806,4.717,4.717,0,0,1,.913,1.219,4.8,4.8,0,0,1,.495,1.51,4.247,4.247,0,0,1-.046,1.526,3.454,3.454,0,0,1-.548,1.259,2.877,2.877,0,0,1-.96.864,2.782,2.782,0,0,1-1.282.339Zm-3.975-27.1a3.294,3.294,0,0,1-1.363-.283,4.117,4.117,0,0,1-1.2-.81,4.744,4.744,0,0,1-1.4-2.706,4.082,4.082,0,0,1,.053-1.5,3.294,3.294,0,0,1,.552-1.222,2.731,2.731,0,0,1,2.232-1.128,3.3,3.3,0,0,1,1.358.288,4.124,4.124,0,0,1,1.194.808,4.745,4.745,0,0,1,1.392,2.693,4.092,4.092,0,0,1-.048,1.492,3.3,3.3,0,0,1-.546,1.223,2.731,2.731,0,0,1-2.228,1.141ZM90.558,308.97a3.2,3.2,0,0,1-1.457-.195,3.9,3.9,0,0,1-1.282-.808,4.716,4.716,0,0,1-.969-1.294,5.178,5.178,0,0,1-.519-1.651,4.966,4.966,0,0,1,.06-1.7,4.236,4.236,0,0,1,.593-1.44,3.453,3.453,0,0,1,1.027-1.025,3.03,3.03,0,0,1,1.362-.464,3.2,3.2,0,0,1,1.452.2,3.9,3.9,0,0,1,1.275.807,4.715,4.715,0,0,1,.964,1.287,5.177,5.177,0,0,1,.519,1.642,4.972,4.972,0,0,1-.054,1.7,4.247,4.247,0,0,1-.586,1.441,3.462,3.462,0,0,1-1.022,1.032,3.031,3.031,0,0,1-1.363.472ZM86.44,279.154a3.239,3.239,0,0,1-1.445-.215,3.955,3.955,0,0,1-1.271-.811,4.72,4.72,0,0,1-.959-1.281,5.074,5.074,0,0,1-.512-1.622,4.775,4.775,0,0,1,.062-1.665,4.042,4.042,0,0,1,.591-1.4,3.326,3.326,0,0,1,1.021-.985,3,3,0,0,1,1.352-.43,3.242,3.242,0,0,1,1.44.22,3.956,3.956,0,0,1,1.263.81,4.717,4.717,0,0,1,.954,1.274,5.072,5.072,0,0,1,.512,1.614,4.778,4.778,0,0,1-.056,1.66,4.049,4.049,0,0,1-.584,1.4,3.333,3.333,0,0,1-1.016.991A3,3,0,0,1,86.44,279.154Zm-4.034-29.21a3.279,3.279,0,0,1-1.434-.234,4.011,4.011,0,0,1-1.259-.814,4.718,4.718,0,0,1-.95-1.268,4.972,4.972,0,0,1-.505-1.594,4.592,4.592,0,0,1,.064-1.627,3.857,3.857,0,0,1,.589-1.356,3.208,3.208,0,0,1,1.015-.946,2.967,2.967,0,0,1,1.343-.4,3.284,3.284,0,0,1,1.428.239,4.014,4.014,0,0,1,1.252.813,4.716,4.716,0,0,1,.945,1.262,4.969,4.969,0,0,1,.506,1.586,4.6,4.6,0,0,1-.059,1.622,3.864,3.864,0,0,1-.582,1.357,3.212,3.212,0,0,1-1.01.952A2.966,2.966,0,0,1,82.406,249.945Zm-3.953-28.621a3.321,3.321,0,0,1-1.422-.253,4.068,4.068,0,0,1-1.248-.817,4.718,4.718,0,0,1-.94-1.255,4.873,4.873,0,0,1-.5-1.567,4.418,4.418,0,0,1,.067-1.589A3.683,3.683,0,0,1,75,214.527,3.1,3.1,0,0,1,76,213.619a2.942,2.942,0,0,1,1.333-.367,3.327,3.327,0,0,1,1.417.257,4.071,4.071,0,0,1,1.241.816,4.718,4.718,0,0,1,.935,1.249,4.871,4.871,0,0,1,.5,1.559,4.421,4.421,0,0,1-.061,1.584,3.689,3.689,0,0,1-.58,1.317,3.1,3.1,0,0,1-1,.914,2.939,2.939,0,0,1-1.333.375Zm-3.874-28.05a3.365,3.365,0,0,1-1.411-.27,4.124,4.124,0,0,1-1.237-.819A4.719,4.719,0,0,1,71,190.941a4.777,4.777,0,0,1-.492-1.541,4.248,4.248,0,0,1,.069-1.553,3.518,3.518,0,0,1,.584-1.277,2.991,2.991,0,0,1,1-.871,2.921,2.921,0,0,1,1.323-.337,3.372,3.372,0,0,1,1.405.275,4.127,4.127,0,0,1,1.23.818,4.721,4.721,0,0,1,.926,1.237,4.775,4.775,0,0,1,.493,1.533,4.253,4.253,0,0,1-.063,1.549,3.523,3.523,0,0,1-.577,1.278,2.994,2.994,0,0,1-1,.878,2.917,2.917,0,0,1-1.323.345Zm-3.8-27.5a3.409,3.409,0,0,1-1.4-.287,4.18,4.18,0,0,1-1.226-.821,4.731,4.731,0,0,1-1.408-2.746,4.091,4.091,0,0,1,.071-1.518,3.36,3.36,0,0,1,.582-1.24,2.857,2.857,0,0,1,2.309-1.144,3.415,3.415,0,0,1,1.394.292,4.184,4.184,0,0,1,1.22.82,4.731,4.731,0,0,1,1.4,2.732,4.1,4.1,0,0,1-.065,1.514,3.368,3.368,0,0,1-.575,1.241,2.858,2.858,0,0,1-2.305,1.158ZM66.368,311.358a3.315,3.315,0,0,1-1.5-.2,3.954,3.954,0,0,1-1.311-.819,4.717,4.717,0,0,1-.984-1.313,5.158,5.158,0,0,1-.517-1.677,4.986,4.986,0,0,1,.079-1.732,4.325,4.325,0,0,1,.626-1.463,3.591,3.591,0,0,1,1.068-1.043,3.176,3.176,0,0,1,1.406-.473,3.32,3.32,0,0,1,1.491.2,3.959,3.959,0,0,1,1.3.818,4.718,4.718,0,0,1,.979,1.306,5.161,5.161,0,0,1,.517,1.668,4.994,4.994,0,0,1-.073,1.726,4.337,4.337,0,0,1-.618,1.464,3.6,3.6,0,0,1-1.063,1.05,3.178,3.178,0,0,1-1.407.482Zm-3.926-30.279a3.355,3.355,0,0,1-1.484-.217,4.013,4.013,0,0,1-1.3-.822,4.719,4.719,0,0,1-.974-1.3,5.053,5.053,0,0,1-.51-1.647,4.791,4.791,0,0,1,.081-1.691,4.124,4.124,0,0,1,.623-1.419,3.46,3.46,0,0,1,1.061-1,3.14,3.14,0,0,1,1.4-.438,3.36,3.36,0,0,1,1.479.222,4.015,4.015,0,0,1,1.291.821,4.72,4.72,0,0,1,.969,1.293,5.054,5.054,0,0,1,.51,1.638,4.8,4.8,0,0,1-.075,1.686,4.135,4.135,0,0,1-.615,1.42,3.467,3.467,0,0,1-1.056,1.008A3.141,3.141,0,0,1,62.442,281.079ZM58.6,251.425a3.4,3.4,0,0,1-1.472-.236,4.07,4.07,0,0,1-1.287-.826,4.719,4.719,0,0,1-.964-1.286,4.949,4.949,0,0,1-.5-1.618,4.606,4.606,0,0,1,.083-1.651,3.937,3.937,0,0,1,.62-1.377,3.336,3.336,0,0,1,1.054-.961,3.109,3.109,0,0,1,1.385-.4,3.4,3.4,0,0,1,1.467.242,4.074,4.074,0,0,1,1.279.824,4.72,4.72,0,0,1,.959,1.28,4.95,4.95,0,0,1,.5,1.61,4.612,4.612,0,0,1-.077,1.646,3.945,3.945,0,0,1-.613,1.378,3.341,3.341,0,0,1-1.049.967A3.108,3.108,0,0,1,58.6,251.425ZM54.83,222.377a3.437,3.437,0,0,1-1.46-.256,4.128,4.128,0,0,1-1.275-.828,4.719,4.719,0,0,1-.954-1.273,4.849,4.849,0,0,1-.5-1.59,4.429,4.429,0,0,1,.085-1.613,3.758,3.758,0,0,1,.617-1.335,3.219,3.219,0,0,1,1.047-.922,3.081,3.081,0,0,1,1.374-.373,3.444,3.444,0,0,1,1.454.26,4.132,4.132,0,0,1,1.268.827,4.72,4.72,0,0,1,.949,1.267,4.85,4.85,0,0,1,.5,1.582,4.435,4.435,0,0,1-.079,1.608,3.765,3.765,0,0,1-.61,1.337A3.224,3.224,0,0,1,56.2,222a3.08,3.08,0,0,1-1.375.381Zm-3.691-28.46a3.481,3.481,0,0,1-1.448-.274,4.184,4.184,0,0,1-1.264-.831,4.763,4.763,0,0,1-1.434-2.824,4.259,4.259,0,0,1,.087-1.576,3.588,3.588,0,0,1,.614-1.3,3.112,3.112,0,0,1,1.04-.884,3.059,3.059,0,0,1,1.364-.342,3.488,3.488,0,0,1,1.442.278A4.188,4.188,0,0,1,52.8,187a4.763,4.763,0,0,1,1.43,2.809,4.265,4.265,0,0,1-.081,1.571,3.6,3.6,0,0,1-.607,1.3,3.116,3.116,0,0,1-1.035.891,3.056,3.056,0,0,1-1.365.35Zm-3.617-27.89a3.526,3.526,0,0,1-1.436-.291,4.241,4.241,0,0,1-1.252-.833,4.722,4.722,0,0,1-.935-1.248,4.659,4.659,0,0,1-.484-1.536,4.1,4.1,0,0,1,.089-1.539,3.43,3.43,0,0,1,.611-1.257A2.986,2.986,0,0,1,46.5,158.16a3.533,3.533,0,0,1,1.431.3,4.245,4.245,0,0,1,1.245.831,4.724,4.724,0,0,1,.93,1.242,4.662,4.662,0,0,1,.484,1.529,4.106,4.106,0,0,1-.083,1.535,3.438,3.438,0,0,1-.6,1.259,2.987,2.987,0,0,1-2.382,1.175ZM41.452,313.817a3.439,3.439,0,0,1-1.539-.2,4.014,4.014,0,0,1-1.341-.831,4.72,4.72,0,0,1-1-1.333,5.143,5.143,0,0,1-.514-1.7,5.013,5.013,0,0,1,.1-1.76,4.424,4.424,0,0,1,.659-1.488,3.737,3.737,0,0,1,1.11-1.061,3.332,3.332,0,0,1,1.453-.482,3.443,3.443,0,0,1,1.533.2,4.02,4.02,0,0,1,1.333.829,4.719,4.719,0,0,1,.994,1.326,5.142,5.142,0,0,1,.515,1.694,5.017,5.017,0,0,1-.093,1.754,4.432,4.432,0,0,1-.651,1.489,3.748,3.748,0,0,1-1.1,1.068,3.334,3.334,0,0,1-1.453.492ZM37.731,283.06a3.477,3.477,0,0,1-1.526-.218,4.073,4.073,0,0,1-1.328-.834,4.723,4.723,0,0,1-.988-1.319,5.036,5.036,0,0,1-.507-1.672,4.815,4.815,0,0,1,.1-1.718,4.218,4.218,0,0,1,.656-1.442,3.6,3.6,0,0,1,1.1-1.018,3.294,3.294,0,0,1,1.441-.447,3.484,3.484,0,0,1,1.52.224,4.077,4.077,0,0,1,1.32.833,4.72,4.72,0,0,1,.983,1.312,5.035,5.035,0,0,1,.508,1.663,4.818,4.818,0,0,1-.1,1.712,4.224,4.224,0,0,1-.648,1.443,3.609,3.609,0,0,1-1.1,1.025,3.294,3.294,0,0,1-1.441.456Zm-3.643-30.112a3.517,3.517,0,0,1-1.512-.239,4.132,4.132,0,0,1-1.316-.837,4.723,4.723,0,0,1-.978-1.305,4.932,4.932,0,0,1-.5-1.643,4.627,4.627,0,0,1,.1-1.677,4.025,4.025,0,0,1,.653-1.4,3.472,3.472,0,0,1,1.094-.976,3.26,3.26,0,0,1,1.429-.412,3.523,3.523,0,0,1,1.507.244,4.136,4.136,0,0,1,1.308.836,4.72,4.72,0,0,1,.973,1.3,4.929,4.929,0,0,1,.5,1.634,4.629,4.629,0,0,1-.1,1.671,4.029,4.029,0,0,1-.645,1.4,3.478,3.478,0,0,1-1.089.983,3.259,3.259,0,0,1-1.43.421ZM30.52,223.461a3.56,3.56,0,0,1-1.5-.258,4.189,4.189,0,0,1-1.3-.84,4.723,4.723,0,0,1-.968-1.292,4.831,4.831,0,0,1-.494-1.614,4.446,4.446,0,0,1,.1-1.637,3.842,3.842,0,0,1,.649-1.356,3.351,3.351,0,0,1,1.087-.936,3.231,3.231,0,0,1,1.418-.38,3.567,3.567,0,0,1,1.494.264,4.194,4.194,0,0,1,1.3.839,4.721,4.721,0,0,1,.963,1.285,4.829,4.829,0,0,1,.495,1.605,4.449,4.449,0,0,1-.1,1.632,3.845,3.845,0,0,1-.642,1.357,3.356,3.356,0,0,1-1.082.943,3.229,3.229,0,0,1-1.419.388Zm-3.494-28.883a3.6,3.6,0,0,1-1.487-.277,4.246,4.246,0,0,1-1.291-.842,4.75,4.75,0,0,1-1.446-2.865,4.273,4.273,0,0,1,.106-1.6,3.668,3.668,0,0,1,.646-1.315,3.239,3.239,0,0,1,1.079-.9,3.2,3.2,0,0,1,1.407-.348,3.61,3.61,0,0,1,1.481.282,4.252,4.252,0,0,1,1.284.841,4.75,4.75,0,0,1,1.441,2.85,4.276,4.276,0,0,1-.1,1.594,3.672,3.672,0,0,1-.638,1.316,3.244,3.244,0,0,1-1.074.9,3.2,3.2,0,0,1-1.408.356Zm-3.423-28.3a3.649,3.649,0,0,1-1.474-.3,4.3,4.3,0,0,1-1.279-.845,4.724,4.724,0,0,1-.948-1.266,4.637,4.637,0,0,1-.481-1.558,4.109,4.109,0,0,1,.108-1.562,3.5,3.5,0,0,1,.642-1.275,3.135,3.135,0,0,1,1.071-.86,3.184,3.184,0,0,1,1.4-.317,3.655,3.655,0,0,1,1.468.3,4.309,4.309,0,0,1,1.272.843,4.724,4.724,0,0,1,.943,1.26,4.639,4.639,0,0,1,.482,1.55,4.115,4.115,0,0,1-.1,1.557,3.509,3.509,0,0,1-.635,1.277,3.138,3.138,0,0,1-1.067.867,3.18,3.18,0,0,1-1.4.325Z" transform="translate(0 0)" fill="#dc2249"/>
    </clipPath>
    <clipPath id="clip-path-22">
      <path id="Path_35" data-name="Path 35" d="M561.087-261.53c127.172,0,230.265-103.062,230.265-230.2S688.259-721.918,561.087-721.918,330.822-618.856,330.822-491.723,433.915-261.53,561.087-261.53Z" transform="translate(-330.822 721.918)" fill="#f2f2f2"/>
    </clipPath>
    <clipPath id="clip-path-23">
      <path id="Path_37" data-name="Path 37" d="M561.9-488.627A100.926,100.926,0,0,0,662.841-589.55,100.922,100.922,0,0,0,561.9-690.441,100.925,100.925,0,0,0,460.964-589.518,100.923,100.923,0,0,0,561.9-488.627Z" transform="translate(-460.964 690.441)" fill="#75cbb3"/>
    </clipPath>
    <clipPath id="clip-path-24">
      <path id="Path_39" data-name="Path 39" d="M319.138-738.436A72.563,72.563,0,0,0,391.7-811a72.563,72.563,0,0,0-72.563-72.563A72.563,72.563,0,0,0,246.575-811,72.563,72.563,0,0,0,319.138-738.436Z" transform="translate(-246.575 883.561)" fill="none"/>
    </clipPath>
    <clipPath id="clip-path-25">
      <path id="Path_43" data-name="Path 43" d="M205.169-884.183a17.5,17.5,0,0,0,17.5-17.5,17.5,17.5,0,0,0-17.5-17.5,17.5,17.5,0,0,0-17.5,17.5A17.5,17.5,0,0,0,205.169-884.183Z" transform="translate(-187.671 919.178)" fill="none"/>
    </clipPath>
    <clipPath id="clip-path-26">
      <path id="Path_45" data-name="Path 45" d="M235.509-689.255a35.509,35.509,0,0,0,35.51-35.51,35.509,35.509,0,0,0-35.509-35.509A35.509,35.509,0,0,0,200-724.764,35.509,35.509,0,0,0,235.509-689.255Z" transform="translate(-200 760.274)" fill="#f2f2f2"/>
    </clipPath>
  </defs>
  <g id="Mask_Group_15" data-name="Mask Group 15" transform="translate(-3624 -4752)" clip-path="url(#clip-path)">
    <g id="Group_29" data-name="Group 29" transform="translate(4315 5685.736)">
      <g id="Group_3" data-name="Group 3" transform="translate(630.122 -784.179)" clip-path="url(#clip-path-2)">
        <path id="Path_5" data-name="Path 5" d="M417.123-926.712H616.8V174.6H417.123Z" transform="translate(-422.27 921.566)" fill="#75cbb3"/>
      </g>
      <g id="Group_4" data-name="Group 4" transform="translate(630.122 -988)" clip-path="url(#clip-path-3)">
        <path id="Path_7" data-name="Path 7" d="M417.123-1203.424H616.8V-70.209H417.123Z" transform="translate(-422.27 1198.278)" fill="#f2f2f2"/>
      </g>
      <g id="Group_5" data-name="Group 5" transform="translate(63 -43.111)" clip-path="url(#clip-path-4)">
        <path id="Path_9" data-name="Path 9" d="M39.726-433.562H239.4V223.107H39.726Z" transform="translate(-44.872 428.415)" fill="#dc2249"/>
      </g>
      <g id="Group_6" data-name="Group 6" transform="translate(252.384 -938.568)" clip-path="url(#clip-path-5)">
        <path id="Path_11" data-name="Path 11" d="M165.753-1029.452H553.784V151.11H165.753Z" transform="translate(-170.9 1024.306)" fill="#7a4865" opacity="0.315"/>
      </g>
      <g id="Group_9" data-name="Group 9" transform="translate(252.384 -933.736)" clip-path="url(#clip-path-6)">
        <g id="Group_8" data-name="Group 8" transform="translate(-5.146 -5.803)" clip-path="url(#clip-path-7)">
          <g id="Group_7" data-name="Group 7" transform="translate(5.146 5.054)" clip-path="url(#clip-path-8)">
            <path id="Path_13" data-name="Path 13" d="M165.753-1029.629H553.784v839H165.753Z" transform="translate(-170.9 1025.324)"/>
          </g>
        </g>
      </g>
      <g id="Group_10" data-name="Group 10" transform="translate(1048.89 -557.59)" clip-path="url(#clip-path-9)">
        <path id="Path_16" data-name="Path 16" d="M669.178-739.992H866.547V83.816H669.178Z" transform="translate(-674.265 734.845)" fill="#3d2b41"/>
      </g>
      <g id="Group_13" data-name="Group 13" transform="translate(1046.89 -619.524)" clip-path="url(#clip-path-10)">
        <g id="Group_12" data-name="Group 12" transform="translate(-5.146 -5.146)" clip-path="url(#clip-path-11)">
          <g id="Group_11" data-name="Group 11" transform="translate(5.146 5.146)" clip-path="url(#clip-path-12)">
            <path id="Path_18" data-name="Path 18" d="M669.178-560.274H868.666V95.851H669.178Z" transform="translate(-674.324 555.128)" fill="#dc2249"/>
          </g>
        </g>
      </g>
      <g id="Group_14" data-name="Group 14" transform="translate(140.194 -366.299)" clip-path="url(#clip-path-13)">
        <path id="Path_21" data-name="Path 21" d="M91.1-648.63h43.229v285.105H91.1Z" transform="translate(-96.242 643.484)" fill="#75cbb3"/>
      </g>
      <g id="Group_21" data-name="Group 21" transform="translate(640.415 -926.216)" clip-path="url(#clip-path-14)">
        <g id="Group_20" data-name="Group 20" transform="translate(-5.146 -13.38)" clip-path="url(#clip-path-15)">
          <g id="Group_15" data-name="Group 15" transform="translate(5.146 13.38)" clip-path="url(#clip-path-16)">
            <path id="Path_23" data-name="Path 23" d="M423.973-1021.233h370v369.886h-370Z" transform="translate(-429.119 1016.086)" fill="#74cab3"/>
          </g>
          <g id="Group_17" data-name="Group 17" transform="translate(184.998 0.762)" clip-path="url(#clip-path-17)">
            <g id="Group_16" data-name="Group 16" transform="translate(-179.852 12.619)" clip-path="url(#clip-path-18)">
              <path id="Path_25" data-name="Path 25" d="M543.657-1029.629H932.585V149.758H543.657Z" transform="translate(-368.951 1011.865)" fill="#f2f2f2"/>
            </g>
          </g>
          <g id="Group_19" data-name="Group 19" transform="translate(184.998 191.6)" clip-path="url(#clip-path-19)">
            <g id="Group_18" data-name="Group 18" transform="translate(-179.852 -178.219)" clip-path="url(#clip-path-16)">
              <path id="Path_28" data-name="Path 28" d="M543.657-902.635H733.8v316.263H543.657Z" transform="translate(-368.951 1075.708)" fill="#dc2121"/>
            </g>
          </g>
        </g>
      </g>
      <g id="Group_22" data-name="Group 22" transform="translate(-565.769 -230.418)" clip-path="url(#clip-path-21)">
        <path id="Path_32" data-name="Path 32" d="M0,0,122.775,10.849,172.157,310.3,38.268,323.92Z" transform="translate(-4.398 -4.298)" fill="#dc2249"/>
      </g>
      <g id="Group_23" data-name="Group 23" transform="translate(495.289 -481.576)" clip-path="url(#clip-path-22)">
        <path id="Path_34" data-name="Path 34" d="M327.4-725.342H798.22v470.681H327.4Z" transform="translate(-332.543 720.196)" fill="#f2f2f2"/>
      </g>
      <g id="Group_24" data-name="Group 24" transform="translate(690.857 -432.275)" clip-path="url(#clip-path-23)">
        <path id="Path_36" data-name="Path 36" d="M457.54-693.866h212.17v212.107H457.54Z" transform="translate(-462.686 688.719)" fill="#75cbb3"/>
      </g>
      <g id="Group_25" data-name="Group 25" transform="translate(368.69 -724.482)" clip-path="url(#clip-path-24)">
        <path id="Path_38" data-name="Path 38" d="M243.151-886.986H398.569v155.418H243.151Z" transform="translate(-248.297 881.84)" fill="#dc2121"/>
      </g>
      <g id="Group_27" data-name="Group 27" transform="translate(298.701 -759.476)" clip-path="url(#clip-path-25)">
        <path id="Path_42" data-name="Path 42" d="M184.247-922.6h41.724v41.724H184.247Z" transform="translate(-187.611 919.238)" fill="#dc2121"/>
      </g>
      <g id="Group_28" data-name="Group 28" transform="translate(298.701 -539.215)" clip-path="url(#clip-path-26)">
        <path id="Path_44" data-name="Path 44" d="M196.575-763.7h81.312v81.312H196.575Z" transform="translate(-201.722 758.552)" fill="#f2f2f2"/>
      </g>
    </g>
  </g>
</svg>
